HIERARCHY
ROOT Hips
{
	OFFSET 0.00000 0.00000 0.00000
	CHANNELS 6 Xposition Yposition Zposition Zrotation Yrotation Xrotation 
	JOINT LHipJoint
	{
		OFFSET 0 0 0
		CHANNELS 3 Zrotation Yrotation Xrotation
		JOINT LeftHip
		{
			OFFSET 1.75344 -1.53157 0.77399
			CHANNELS 3 Zrotation Yrotation Xrotation
			JOINT LeftKnee
			{
				OFFSET 2.25415 -6.19323 0.00000
				CHANNELS 3 Zrotation Yrotation Xrotation
				JOINT LeftAnkle
				{
					OFFSET 2.30342 -6.32861 0.00000
					CHANNELS 3 Zrotation Yrotation Xrotation
					JOINT LeftToe
					{
						OFFSET 0.10958 -0.30108 1.49206
						CHANNELS 3 Zrotation Yrotation Xrotation
						End Site
						{
							OFFSET 0.00000 -0.00000 0.77783
						}
					}
				}
			}
		}
	}
	JOINT RHipJoint
	{
		OFFSET 0 0 0
		CHANNELS 3 Zrotation Yrotation Xrotation
		JOINT RightHip
		{
			OFFSET -1.81912 -1.53156 0.77399
			CHANNELS 3 Zrotation Yrotation Xrotation
			JOINT RightKnee
			{
				OFFSET -2.22882 -6.12365 0.00000
				CHANNELS 3 Zrotation Yrotation Xrotation
				JOINT RightAnkle
				{
					OFFSET -2.21943 -6.09785 0.00000
					CHANNELS 3 Zrotation Yrotation Xrotation
					JOINT RightToe
					{
						OFFSET -0.18931 -0.52012 1.59379
						CHANNELS 3 Zrotation Yrotation Xrotation
						End Site
						{
							OFFSET -0.00000 -0.00000 0.84686
						}
					}
				}
			}
		}
	}
	JOINT lowerback
	{
		OFFSET 0 0 0
		CHANNELS 3 Zrotation Yrotation Xrotation
		JOINT Chest
		{
			OFFSET -0.00200 1.66634 -0.14248
			CHANNELS 3 Zrotation Yrotation Xrotation
			JOINT Chest2
			{
				OFFSET -0.00875 1.64542 0.09514
				CHANNELS 3 Zrotation Yrotation Xrotation
				JOINT lowerneck
				{
					OFFSET 0 0 0
					CHANNELS 3 Zrotation Yrotation Xrotation
					JOINT Neck
					{
						OFFSET 0.02257 1.59605 0.00839
						CHANNELS 3 Zrotation Yrotation Xrotation
						JOINT Head
						{
							OFFSET -0.10214 1.57530 -0.23335
							CHANNELS 3 Zrotation Yrotation Xrotation
							End Site
							{
								OFFSET -0.03588 1.60717 -0.08062
							}
						}
					}
				}
				JOINT LeftCollar
				{
					OFFSET 0 0 0
					CHANNELS 3 Zrotation Yrotation Xrotation
					JOINT LeftShoulder
					{
						OFFSET 2.54983 1.10186 0.40078
CHANNELS 3 Zrotation Xrotation Yrotation
						JOINT LeftElbow
						{
OFFSET 0 -4.288400 0.000000
CHANNELS 3 Zrotation Xrotation Yrotation
							JOINT LeftWrist
							{
OFFSET 0 -3.065520 -0.000000
CHANNELS 3 Zrotation Xrotation Yrotation
								JOINT lhand
								{
									OFFSET 0 0 0
CHANNELS 3 Zrotation Xrotation Yrotation
									JOINT LFingers
									{
OFFSET 0 -0.753040 0.000000
CHANNELS 3 Zrotation Xrotation Yrotation
										End Site
										{
OFFSET 0 -0.607120 0.000000
										}
									}
								}
								JOINT LThumb
								{
OFFSET 0 0.000000 0.000000
CHANNELS 3 Zrotation Xrotation Yrotation
									End Site
									{
OFFSET 0 -0.616390 0.616390
									}
								}
							}
						}
					}
				}
				JOINT RightCollar
				{
					OFFSET 0 0 0
					CHANNELS 3 Zrotation Yrotation Xrotation
					JOINT RightShoulder
					{
						OFFSET -2.60909 1.35448 0.21802
CHANNELS 3 Zrotation Xrotation Yrotation
						JOINT RightElbow
						{
OFFSET 0 -4.521720 -0.000000
CHANNELS 3 Zrotation Xrotation Yrotation
							JOINT RightWrist
							{
OFFSET 0 -2.891400 0.000000
CHANNELS 3 Zrotation Xrotation Yrotation
								JOINT rhand
								{
									OFFSET 0 0 0
CHANNELS 3 Zrotation Xrotation Yrotation
									JOINT RFingers
									{
OFFSET 0 -0.680540 0.000000
CHANNELS 3 Zrotation Xrotation Yrotation
										End Site
										{
OFFSET 0 -0.548670 0.000000
										}
									}
								}
								JOINT RThumb
								{
OFFSET 0 0.000000 0.000000
CHANNELS 3 Zrotation Xrotation Yrotation
									End Site
									{
OFFSET 0 -0.557050 0.557050
									}
								}
							}
						}
					}
				}
			}
		}
	}
}
MOTION
Frames: 9
Frame Time: 0.008333333333333333
8.965700 15.176200 42.214900 179.456000 -0.958400 176.757000 0.000000 0.000000 0.000000 -27.860500 -22.560700 1.794500 2.297400 9.459800 27.244600 0.884700 13.014900 -26.802700 3.104200 -10.861800 -31.815300 0.000000 0.000000 0.000000 27.102200 17.637800 2.474100 -2.171800 -9.215100 26.470600 -1.301700 -20.229300 -36.608300 -0.353900 -3.821900 10.576200 0.727400 1.301300 7.984600 0.051100 1.802500 -3.356200 -0.619300 0.832300 -8.003200 -4.751700 0.307100 -10.107200 2.398900 -2.186000 32.059800 1.213400 -2.350100 12.295300 -0.000000 0.000000 0.000000 4.233900 13.720700 -40.951000 20.609600 -31.369800 5.845400 9.169000 7.238100 32.621100 0.000000 0.000000 0.000000 -7.125000 0.000000 0.000000 -12.759000 -2.262200 -13.588900 -0.000000 0.000000 0.000000 -7.283600 10.426200 57.186400 -18.080900 -28.260700 -4.587500 -4.487200 16.475100 55.370800 0.000000 0.000000 0.000000 7.125000 0.000000 -0.000000 78.033800 73.492600 -60.715000
8.967240 15.180343 42.221781 179.416384 -0.598827 176.769536 0.000000 0.000000 0.000000 -27.778101 -22.168457 1.571362 2.298460 9.461885 27.251201 0.926564 12.758449 -26.873957 3.004901 -10.702926 -31.284483 0.000000 0.000000 0.000000 27.019105 17.713347 2.409741 -2.173308 -9.218125 26.480053 -1.300696 -19.781295 -36.148693 -0.443975 -4.274950 11.851530 0.606312 1.399232 8.046917 0.058109 1.921400 -3.358487 -0.563462 0.896584 -8.044560 -4.698611 0.345949 -10.109914 2.348395 -2.118485 32.036609 1.194148 -2.317949 12.282242 0.000000 0.000000 0.000000 4.174853 13.635545 -40.803404 20.519501 -31.263175 5.798508 9.656715 7.116611 32.800913 0.000000 0.000000 0.000000 -7.125000 0.000000 0.000000 -12.500580 -2.503046 -13.350929 0.000000 0.000000 0.000000 -7.293574 10.378385 57.260411 -18.101609 -28.287053 -4.597311 -4.192556 16.215951 55.447676 0.000000 0.000000 0.000000 7.125000 0.000000 0.000000 78.383165 73.400248 -60.946245
8.966934 15.179164 42.226366 179.493786 -0.753395 176.857696 0.000000 0.000000 0.000000 -27.744847 -22.621382 1.556961 2.315296 9.494141 27.353693 0.934097 12.894965 -27.059334 2.923104 -10.569182 -30.840695 0.000000 0.000000 0.000000 27.085248 17.743724 2.360697 -2.155225 -9.182151 26.366667 -1.235011 -20.401104 -36.432022 -0.397665 -4.048395 11.212930 0.622376 1.338293 8.036751 0.107792 1.843747 -3.410743 -0.508954 0.858036 -8.096955 -4.678925 0.374955 -10.221414 2.167186 -2.050092 32.227238 1.127569 -2.319516 12.379458 0.000000 0.000000 0.000000 4.107234 13.571779 -40.742843 20.459645 -31.192193 5.767564 8.843288 7.708932 32.463808 0.000000 0.000000 0.000000 -7.125000 0.000000 0.000000 -12.929914 -2.066245 -13.737155 0.000000 0.000000 0.000000 -7.512755 10.603941 57.396491 -18.434149 -28.709496 -4.755922 -3.670003 15.600608 55.862055 0.000000 0.000000 0.000000 7.125000 0.000000 0.000000 79.916520 73.277918 -62.300497
8.966268 15.183904 42.231958 179.436087 -0.771124 176.807000 0.000000 0.000000 0.000000 -27.731059 -22.362109 1.437701 2.321936 9.506696 27.393518 0.966936 12.600832 -27.029669 2.839944 -10.431175 -30.384782 0.000000 0.000000 0.000000 27.052759 17.774238 2.471637 -2.146274 -9.164348 26.310861 -1.265333 -20.279449 -36.467178 -0.397915 -4.049044 11.214738 0.576964 1.326898 8.179286 0.084033 1.823460 -3.421310 -0.509475 0.849282 -8.192242 -4.833047 0.354702 -10.098084 2.335267 -2.085631 32.083794 1.216086 -2.326958 12.298952 0.000000 0.000000 0.000000 4.136767 13.595481 -40.801200 20.463716 -31.196979 5.769644 8.784735 7.947722 31.671757 0.000000 0.000000 0.000000 -7.125000 0.000000 0.000000 -12.914270 -1.287399 -13.546975 0.000000 0.000000 0.000000 -7.565229 10.580945 57.524905 -18.439301 -28.715981 -4.758414 -3.564872 15.450923 55.666523 0.000000 0.000000 0.000000 7.125000 0.000000 0.000000 79.302508 73.211900 -61.621424
8.966398 15.186074 42.236638 179.493406 -0.719077 176.770935 0.000000 0.000000 0.000000 -27.623318 -22.222914 1.422038 2.324168 9.510936 27.407077 1.000759 12.790577 -27.455040 2.850314 -10.446423 -30.436983 0.000000 0.000000 0.000000 27.111201 17.741339 2.510950 -2.142520 -9.156873 26.287192 -1.416036 -19.926830 -36.902621 -0.362451 -3.864607 10.696484 0.584407 1.339266 8.279921 0.090115 1.843222 -3.405263 -0.512801 0.858814 -8.233338 -4.754726 0.327148 -10.173710 2.212245 -2.097301 32.104046 1.153652 -2.335666 12.322160 0.000000 0.000000 0.000000 4.128293 13.541073 -40.663244 20.457256 -31.189353 5.766314 9.216612 7.730975 31.957856 0.000000 0.000000 0.000000 -7.125000 0.000000 0.000000 -12.689589 -1.622079 -13.372427 0.000000 0.000000 0.000000 -7.436128 10.364589 57.460727 -18.186306 -28.394772 -4.637655 -3.658622 15.566462 55.781664 0.000000 0.000000 0.000000 7.125000 0.000000 0.000000 79.653972 73.262331 -62.024654
8.965715 15.182298 42.240832 179.541860 -0.647090 176.705623 0.000000 0.000000 0.000000 -27.517412 -22.003064 1.353811 2.331433 9.524752 27.450953 1.124039 12.824390 -28.370197 3.509087 -11.476791 -33.905322 0.000000 0.000000 0.000000 27.171218 17.723949 2.535284 -2.142455 -9.156768 26.286790 -1.427525 -20.146562 -37.180116 -0.206074 -2.920116 8.056704 0.574178 1.386670 8.402233 0.096942 1.907385 -3.420675 -0.513346 0.890187 -8.321249 -4.719561 0.273055 -10.264572 2.198374 -2.197196 32.226451 1.126579 -2.384128 12.395873 0.000000 0.000000 0.000000 4.156581 13.580017 -40.643227 20.511944 -31.254168 5.794586 8.996105 7.825046 31.835359 0.000000 0.000000 0.000000 -7.125000 0.000000 0.000000 -12.805490 -1.473918 -13.468222 0.000000 0.000000 0.000000 -7.278893 10.281706 57.181859 -17.902734 -28.032432 -4.503478 -3.706397 15.748373 55.637003 0.000000 0.000000 0.000000 7.125000 0.000000 0.000000 79.161348 73.257486 -61.537018
8.962904 15.173557 42.240071 179.557446 -0.589312 176.603447 0.000000 0.000000 0.000000 -27.556831 -22.048630 1.492632 2.354427 9.568245 27.589613 1.214825 12.527762 -28.742314 3.450361 -11.389369 -33.606173 0.000000 0.000000 0.000000 27.156873 17.554260 2.560616 -2.138266 -9.148284 26.260455 -1.470283 -19.981667 -37.237449 -0.166348 -2.624288 7.234635 0.607308 1.399038 8.458384 0.054235 1.927196 -3.345934 -0.580564 0.898426 -8.270439 -4.606044 0.275843 -10.382346 2.155810 -2.182896 32.224606 1.092639 -2.362188 12.417739 0.000000 0.000000 0.000000 4.215927 13.506675 -40.577169 20.546635 -31.295343 5.812704 9.363481 7.678436 31.981836 0.000000 0.000000 0.000000 -7.125000 0.000000 0.000000 -12.608890 -1.664867 -13.292377 0.000000 0.000000 0.000000 -7.225306 10.173022 57.196345 -17.897995 -28.026337 -4.501240 -3.370296 15.443023 55.805076 0.000000 0.000000 0.000000 7.125000 0.000000 0.000000 79.816927 73.163692 -62.068593
8.961850 15.178550 42.238437 179.536544 -0.544473 176.708255 0.000000 0.000000 0.000000 -27.263747 -21.330210 0.987909 2.371970 9.601244 27.694860 1.487277 10.875393 -29.239447 3.225584 -11.051517 -32.453884 0.000000 0.000000 0.000000 27.072619 17.524197 2.454782 -2.139224 -9.150208 26.266369 -1.552336 -19.783367 -37.464649 -0.154690 -2.533981 6.983929 0.450357 1.451316 8.366704 0.071654 1.978355 -3.372961 -0.479615 0.931818 -8.251540 -4.737024 0.163839 -10.180523 2.278273 -2.323980 31.942576 1.148223 -2.410394 12.268531 0.000000 0.000000 0.000000 4.336873 13.487200 -40.958319 20.607074 -31.366705 5.844153 9.582069 7.130051 31.489228 0.000000 0.000000 0.000000 -7.125000 0.000000 0.000000 -12.454811 -1.212900 -13.024868 0.000000 0.000000 0.000000 -7.182822 10.122444 56.996294 -17.787202 -27.883905 -4.449253 -3.087994 15.432082 55.821414 0.000000 0.000000 0.000000 7.125000 0.000000 0.000000 79.955314 73.066305 -62.089932
8.958241 15.171036 42.231262 179.774725 -0.490164 176.588175 0.000000 0.000000 0.000000 -26.974819 -21.047679 0.919066 2.397707 9.649429 27.848770 1.548288 10.707153 -29.515798 3.637005 -11.660433 -34.541685 0.000000 0.000000 0.000000 27.360457 17.404540 2.622039 -2.128544 -9.128819 26.199212 -1.580616 -19.626171 -37.457070 -0.175713 -2.699832 7.444173 0.558240 1.457125 8.438936 0.216832 2.010817 -3.350729 -0.393761 0.946218 -8.271271 -4.920254 0.163120 -10.062439 2.347994 -2.328943 31.944675 1.205937 -2.433246 12.247562 0.000000 0.000000 0.000000 4.310940 13.659244 -41.063746 20.841907 -31.643248 5.966778 8.156026 7.427109 31.309124 0.000000 0.000000 0.000000 -7.125000 0.000000 0.000000 -13.247425 -0.855624 -13.816251 0.000000 0.000000 0.000000 -7.359133 10.241274 57.009624 -17.835683 -27.946278 -4.471959 -3.279922 15.727739 55.806429 0.000000 0.000000 0.000000 7.125000 0.000000 0.000000 79.848161 73.132023 -62.062000
